<?xml version="1.0" encoding="UTF-8" standalone="no"?>
<!-- Created with Inkscape (http://www.inkscape.org/) -->

<svg
   xmlns:dc="http://purl.org/dc/elements/1.1/"
   xmlns:cc="http://creativecommons.org/ns#"
   xmlns:rdf="http://www.w3.org/1999/02/22-rdf-syntax-ns#"
   xmlns:svg="http://www.w3.org/2000/svg"
   xmlns="http://www.w3.org/2000/svg"
   xmlns:sodipodi="http://sodipodi.sourceforge.net/DTD/sodipodi-0.dtd"
   xmlns:inkscape="http://www.inkscape.org/namespaces/inkscape"
   width="744.09448"
   height="1052.3622"
   id="svg2"
   version="1.1"
   inkscape:version="0.48.4 r9939"
   viewBox="0 0 744.09448 1052.3622"
   sodipodi:docname="vicki.svg">
  <defs
     id="defs4" />
  <sodipodi:namedview
     id="base"
     pagecolor="#adadad"
     bordercolor="#666666"
     borderopacity="1.0"
     inkscape:pageopacity="0.68627451"
     inkscape:pageshadow="2"
     inkscape:zoom="0.35"
     inkscape:cx="631.53591"
     inkscape:cy="46.009292"
     inkscape:document-units="px"
     inkscape:current-layer="layer7"
     showgrid="false"
     inkscape:window-width="1920"
     inkscape:window-height="1017"
     inkscape:window-x="1912"
     inkscape:window-y="-8"
     inkscape:window-maximized="1" />
  <metadata
     id="metadata7">
    <rdf:RDF>
      <cc:Work
         rdf:about="">
        <dc:format>image/svg+xml</dc:format>
        <dc:type
           rdf:resource="http://purl.org/dc/dcmitype/StillImage" />
        <dc:title></dc:title>
      </cc:Work>
    </rdf:RDF>
  </metadata>
  <g
     inkscape:groupmode="layer"
     id="layer2"
     inkscape:label="Layer 2"
     style="display:inline;opacity:1">
    <path
       style="fill:#000000;fill-opacity:1;fill-rule:evenodd;stroke:none;stroke-width:1px;stroke-linecap:butt;stroke-linejoin:miter;stroke-opacity:1"
       d="m 41.416247,683.65651 c 0,0 97.984793,-43.43656 91.923883,-244.45692 -4.78576,-158.72757 68.69037,-333.57369 236.3757,-332.56354 201.85758,1.21601 242.2304,174.51074 237.38585,333.5737 -6.06091,199.00005 90.91373,243.44676 90.91373,243.44676 0,0 -94.24149,55.30784 -234.35539,-10.10152 -54.25093,38.63634 -133.6763,38.73938 -187.88838,4.04061 -147.14612,55.20481 -234.355393,6.06091 -234.355393,6.06091 z"
       id="path4174"
       inkscape:connector-curvature="0"
       sodipodi:nodetypes="cssscccc" />
    <path
       style="fill:#f7c1a9;fill-opacity:1;fill-rule:evenodd;stroke:none"
       d="m 284.86302,254.34167 c -14.69795,94.36129 -87.20788,147.16106 -105.09647,147.48228 -17.88859,0.32122 -14.25812,84.73249 -2.02031,83.84266 12.23781,-0.88983 69.48063,174.74967 186.91883,175.76655 117.4382,1.01688 186.94927,-175.16811 200.51528,-175.76655 13.56601,-0.59844 12.20333,-83.36397 3.48552,-81.83584 -6.22288,1.0908 -9.0628,-9.80477 -14.34465,-19.17941 -23.54777,-41.79441 -85.43969,-51.18473 -118.94547,-56.56854 -33.50579,-5.3838 -84.297,1.60319 -150.51273,-73.74115 z"
       id="path4216"
       inkscape:connector-curvature="0"
       sodipodi:nodetypes="czzzzsszc" />
  </g>
  <g
     inkscape:groupmode="layer"
     id="g4338"
     inkscape:label="rosie-eyes"
     style="display:inline;opacity:1">
    <circle
       r="30.763245"
       cy="436.23041"
       cx="450.99609"
       id="circle4342"
       style="opacity:1;fill:#000000;fill-opacity:1;stroke:none;stroke-width:5;stroke-linecap:round;stroke-linejoin:miter;stroke-miterlimit:4;stroke-dasharray:none;stroke-dashoffset:0;stroke-opacity:1" />
    <circle
       style="opacity:1;fill:#000000;fill-opacity:1;stroke:none;stroke-width:5;stroke-linecap:round;stroke-linejoin:miter;stroke-miterlimit:4;stroke-dasharray:none;stroke-dashoffset:0;stroke-opacity:0.44805196"
       id="circle4344"
       cx="287.09735"
       cy="436.23019"
       r="30.763" />
  </g>
  <g
     inkscape:groupmode="layer"
     id="layer6"
     inkscape:label="mouth"
     style="display:inline">
    <path
       sodipodi:nodetypes="czszzc"
       inkscape:connector-curvature="0"
       id="path4320"
       d="m 312.56499,562.19631 c 1.38756,-2.6297 37.04612,4.2792 59.58334,3.88435 22.53723,-0.39484 54.24164,-6.49831 55.54293,-3.84105 2.3595,4.81815 -29.72152,37.51102 -57.61204,38.14186 -27.89051,0.63083 -60.07263,-33.33651 -57.51423,-38.18519 z"
       style="display:inline;fill:#000000;fill-opacity:1;fill-rule:evenodd;stroke:none;stroke-width:1px;stroke-linecap:butt;stroke-linejoin:miter;stroke-opacity:1" />
  </g>
  <g
     inkscape:groupmode="layer"
     id="layer7"
     inkscape:label="antenna">
    <path
       style="fill:none;fill-rule:evenodd;stroke:#000000;stroke-width:10.00000017;stroke-linecap:butt;stroke-linejoin:miter;stroke-miterlimit:4;stroke-dasharray:none;stroke-opacity:1"
       d="m 392.85714,53.790755 c 0,0 -26.9398,33.075062 -25.1646,110.173315"
       id="path4374"
       inkscape:connector-curvature="0"
       sodipodi:nodetypes="cc" />
    <circle
       style="opacity:1;fill:#ff3c3c;fill-opacity:1;stroke:none;stroke-width:10;stroke-linecap:round;stroke-linejoin:round;stroke-miterlimit:4;stroke-dasharray:none;stroke-dashoffset:0;stroke-opacity:1"
       id="path4372"
       cx="404.65338"
       cy="42.903152"
       r="33.571426" />
  </g>
</svg>
